<?xml version="1.0" encoding="UTF-8" standalone="no"?>
<!DOCTYPE svg PUBLIC "-//W3C//DTD SVG 20010904//EN"
              "http://www.w3.org/TR/2001/REC-SVG-20010904/DTD/svg10.dtd">

<svg xmlns="http://www.w3.org/2000/svg"
     width="11.0067mm" height="11.8534mm"
     viewBox="0 0 130 140">
  <path id="Selection"
        fill="none" stroke="black" stroke-width="1"
        d="M 67.00,40.00
           C 66.99,44.13 66.91,51.39 64.27,54.72
             61.56,58.13 55.07,58.73 51.00,59.41
             46.31,60.20 32.04,62.40 28.00,61.47
             24.21,60.59 21.18,58.09 18.00,56.00
             22.73,65.89 27.56,61.18 31.22,68.06
             32.06,69.64 34.18,74.33 34.08,76.00
             33.90,79.02 31.34,80.08 32.11,84.00
             32.36,85.28 33.63,87.76 34.25,89.00
             35.30,91.10 36.61,93.90 38.39,95.44
             45.05,101.18 58.39,95.42 65.00,92.00
             59.14,90.41 51.64,95.81 45.00,94.76
             39.16,93.83 31.86,83.29 37.24,77.97
             40.97,74.89 47.46,77.65 52.00,77.97
             52.00,77.97 61.90,77.97 61.90,77.97
             67.42,79.52 67.00,87.40 67.00,92.00
             70.71,86.97 67.57,81.02 72.39,78.06
             74.61,76.67 77.58,77.63 80.00,78.06
             85.10,78.24 94.84,74.69 98.48,78.06
             103.81,83.67 96.23,94.08 90.00,94.80
             84.87,95.39 75.99,91.85 70.00,91.00
             74.80,95.23 87.76,99.55 93.98,97.11
             98.37,95.39 104.57,85.72 103.30,81.00
             102.65,78.60 100.62,76.77 99.00,75.00
             103.36,72.42 104.14,68.76 105.00,64.00
             111.87,63.62 114.63,62.12 118.00,56.00
             114.57,57.71 111.82,60.48 108.00,61.30
             104.60,62.29 102.30,61.50 99.00,61.30
             92.14,60.48 74.88,59.75 70.85,53.87
             68.47,50.39 69.00,44.13 69.00,40.00
             69.00,40.00 67.00,40.00 67.00,40.00 Z
           M 68.00,55.00
           C 68.00,55.00 68.00,59.00 68.00,59.00
             68.00,59.00 68.00,55.00 68.00,55.00 Z
           M 71.00,58.00
           C 80.22,62.70 93.70,64.00 104.00,64.00
             102.93,66.47 101.72,69.65 99.61,71.42
             96.64,73.91 83.07,75.59 79.00,75.34
             76.67,75.19 71.65,75.30 70.17,73.43
             67.93,70.58 69.69,61.19 71.00,58.00 Z
           M 65.00,59.00
           C 65.00,59.00 66.00,75.00 66.00,75.00
             66.00,75.00 70.00,75.00 70.00,75.00
             70.00,75.00 70.00,76.00 70.00,76.00
             70.00,76.00 68.00,78.00 68.00,78.00
             60.75,73.18 60.23,75.83 53.00,75.39
             53.00,75.39 44.00,73.92 44.00,73.92
             41.42,73.49 37.76,73.22 35.79,71.43
             33.68,69.51 32.77,66.64 32.00,64.00
             45.46,64.00 52.31,61.87 65.00,59.00 Z
           M 17.00,64.00
           C 18.05,71.89 20.50,84.68 23.23,92.00
             23.23,92.00 29.89,107.58 29.89,107.58
             29.86,111.89 22.03,122.80 29.89,128.00
             26.99,115.58 33.91,112.92 35.00,100.00
             35.00,100.00 33.00,104.00 33.00,104.00
             33.00,104.00 31.00,104.00 31.00,104.00
             31.00,104.00 26.05,91.00 26.05,91.00
             26.05,91.00 19.00,64.00 19.00,64.00
             19.00,64.00 17.00,64.00 17.00,64.00 Z
           M 117.00,64.00
           C 117.00,64.00 111.00,86.00 111.00,86.00
             111.00,86.00 104.00,105.00 104.00,105.00
             104.00,105.00 101.00,100.00 101.00,100.00
             99.70,104.81 102.88,109.58 104.54,114.00
             106.62,119.56 106.63,122.25 106.01,128.00
             113.10,120.29 105.47,113.40 106.01,107.00
             106.24,104.27 109.43,98.80 110.69,96.00
             113.66,89.41 119.59,70.61 117.00,64.00 Z
           M 67.00,94.00
           C 67.00,94.00 67.00,108.00 67.00,108.00
             67.00,108.00 69.00,108.00 69.00,108.00
             69.00,103.26 69.91,97.96 67.00,94.00 Z
           M 39.00,98.00
           C 41.86,103.96 43.00,105.23 44.96,112.00
             47.45,120.58 45.67,125.68 56.00,129.00
             54.05,126.23 51.06,123.01 49.89,120.00
             47.51,113.92 48.51,102.94 39.00,98.00 Z
           M 95.00,98.00
           C 86.03,108.64 89.25,109.60 85.58,120.00
             85.58,120.00 82.00,128.00 82.00,128.00
             90.69,123.76 88.44,116.87 91.47,109.00
             92.91,105.25 95.55,102.10 95.00,98.00 Z
           M 66.00,111.00
           C 66.00,111.00 69.00,115.00 69.00,115.00
             69.00,115.00 66.00,111.00 66.00,111.00 Z
           M 67.00,116.00
           C 67.00,116.00 67.00,128.00 67.00,128.00
             67.00,128.00 69.00,128.00 69.00,128.00
             69.00,123.42 69.80,119.80 67.00,116.00 Z" />
</svg>
