<?xml version="1.0" encoding="UTF-8" standalone="no"?>
<!DOCTYPE svg PUBLIC "-//W3C//DTD SVG 20010904//EN"
              "http://www.w3.org/TR/2001/REC-SVG-20010904/DTD/svg10.dtd">

<svg xmlns="http://www.w3.org/2000/svg"
     width="10.922mm" height="11.8534mm"
     viewBox="0 0 129 140">
  <path id="Selection"
        fill="none" stroke="black" stroke-width="1"
        d="M 78.00,84.00
           C 67.05,76.18 63.10,79.15 58.00,77.42
             54.10,76.09 51.44,72.39 45.00,71.33
             40.15,70.54 37.15,72.34 34.00,71.84
             31.52,71.45 28.27,69.26 26.00,68.00
             28.18,75.36 37.50,79.43 39.00,74.00
             39.00,74.00 54.00,78.00 54.00,78.00
             54.00,78.00 51.00,82.00 51.00,82.00
             61.16,79.53 72.06,82.29 79.91,89.33
             83.65,92.68 84.66,96.42 89.00,99.00
             89.00,99.00 81.79,83.00 81.79,83.00
             81.79,83.00 80.67,67.00 80.67,67.00
             80.67,67.00 73.00,50.00 73.00,50.00
             75.49,48.97 73.37,46.88 71.85,45.64
             71.85,45.64 58.00,38.00 58.00,38.00
             58.00,38.00 61.00,33.00 61.00,33.00
             61.00,33.00 72.00,38.00 72.00,38.00
             69.15,31.49 68.10,32.68 68.00,25.00
             68.00,25.00 62.00,26.00 62.00,26.00
             62.00,26.00 65.00,32.00 65.00,32.00
             65.00,32.00 59.00,30.00 59.00,30.00
             59.00,30.00 64.00,19.00 64.00,19.00
             71.92,24.10 76.22,38.61 80.55,47.00
             86.37,58.26 104.16,76.15 105.21,88.00
             105.72,93.75 103.15,97.80 103.15,101.99
             103.15,105.25 105.13,107.92 106.00,111.00
             106.00,111.00 85.00,111.81 85.00,111.81
             85.00,111.81 76.00,110.00 76.00,110.00
             76.00,110.00 80.00,113.19 80.00,113.19
             74.27,115.38 68.87,115.75 63.00,113.19
             55.84,110.52 50.82,103.14 43.00,106.15
             39.57,107.47 38.57,108.87 37.00,112.00
             43.52,108.58 43.62,107.75 51.00,109.00
             51.00,109.00 46.37,117.00 46.37,117.00
             46.37,117.00 40.00,126.00 40.00,126.00
             48.54,123.27 50.23,118.92 53.00,111.00
             66.72,122.48 77.41,116.50 93.00,114.42
             96.48,113.96 105.15,114.63 107.04,112.40
             110.01,109.46 107.22,103.91 107.04,100.00
             106.39,95.43 108.30,92.68 107.90,87.00
             106.95,73.42 90.47,58.01 84.24,46.00
             84.24,46.00 81.25,39.00 81.25,39.00
             81.25,39.00 75.25,28.00 75.25,28.00
             73.49,24.51 71.56,19.93 67.96,18.02
             65.61,16.78 61.66,16.96 59.00,17.00
             57.09,17.04 54.92,17.00 53.22,18.02
             50.01,19.96 47.18,30.22 48.61,33.59
             49.44,35.53 52.29,36.52 54.00,37.69
             54.00,37.69 67.61,47.41 67.61,47.41
             69.55,49.29 71.04,52.57 72.24,55.00
             78.92,68.52 78.00,69.58 78.00,84.00 Z
           M 61.00,19.00
           C 61.00,19.00 61.00,20.00 61.00,20.00
             61.00,20.00 60.00,19.00 60.00,19.00
             60.00,19.00 61.00,19.00 61.00,19.00 Z
           M 55.00,20.00
           C 55.00,20.00 55.00,21.00 55.00,21.00
             55.00,21.00 54.00,20.00 54.00,20.00
             54.00,20.00 55.00,20.00 55.00,20.00 Z
           M 60.00,20.00
           C 58.96,23.66 58.13,26.66 55.00,29.00
             55.00,29.00 58.00,20.00 58.00,20.00
             58.00,20.00 60.00,20.00 60.00,20.00 Z
           M 54.00,22.00
           C 54.00,22.00 54.00,23.00 54.00,23.00
             54.00,23.00 53.00,22.00 53.00,22.00
             53.00,22.00 54.00,22.00 54.00,22.00 Z
           M 58.00,35.00
           C 53.70,34.75 52.32,34.86 50.00,31.00
             54.28,31.11 56.42,30.62 58.00,35.00 Z
           M 72.00,47.00
           C 72.00,47.00 72.00,48.00 72.00,48.00
             72.00,48.00 71.00,47.00 71.00,47.00
             71.00,47.00 72.00,47.00 72.00,47.00 Z
           M 73.00,49.00
           C 73.00,49.00 73.00,50.00 73.00,50.00
             73.00,50.00 72.00,49.00 72.00,49.00
             72.00,49.00 73.00,49.00 73.00,49.00 Z
           M 79.00,84.00
           C 79.00,84.00 79.00,85.00 79.00,85.00
             79.00,85.00 78.00,84.00 78.00,84.00
             78.00,84.00 79.00,84.00 79.00,84.00 Z
           M 34.00,102.00
           C 39.32,99.33 40.11,96.63 41.00,91.00
             50.77,97.54 56.33,104.03 69.00,104.91
             73.22,105.21 77.40,105.73 80.00,102.00
             80.00,102.00 63.00,100.45 63.00,100.45
             63.00,100.45 43.00,90.00 43.00,90.00
             43.00,90.00 46.00,87.00 46.00,87.00
             37.28,87.71 36.53,94.92 34.00,102.00 Z
           M 85.00,104.00
           C 88.32,106.45 90.02,105.99 94.00,106.00
             94.00,106.00 94.00,104.00 94.00,104.00
             94.00,104.00 85.00,104.00 85.00,104.00 Z" />
</svg>
