<?xml version="1.0" encoding="UTF-8" standalone="no"?>
<!DOCTYPE svg PUBLIC "-//W3C//DTD SVG 20010904//EN"
              "http://www.w3.org/TR/2001/REC-SVG-20010904/DTD/svg10.dtd">

<svg xmlns="http://www.w3.org/2000/svg"
     width="11.0067mm" height="11.8534mm"
     viewBox="0 0 130 140">
  <path id="Selection"
        fill="none" stroke="black" stroke-width="1"
        d="M 83.00,6.00
           C 83.00,6.00 81.33,19.17 81.33,19.17
             81.33,19.17 74.00,32.00 74.00,32.00
             74.00,32.00 72.00,33.00 72.00,33.00
             67.72,32.43 65.28,33.65 60.99,31.87
             52.10,28.17 46.65,16.21 47.00,7.00
             42.14,10.53 40.43,16.79 44.51,21.74
             46.72,24.44 50.25,25.47 50.96,29.43
             51.26,31.07 50.72,34.40 50.20,35.99
             47.05,45.61 36.79,42.74 32.00,49.33
             32.00,49.33 24.00,49.33 24.00,49.33
             24.00,49.33 18.00,49.33 18.00,49.33
             16.09,49.54 13.85,50.44 12.00,51.07
             5.34,53.33 1.59,54.54 0.00,62.00
             7.27,54.96 5.37,56.26 14.99,53.56
             16.51,53.13 17.98,52.45 19.58,52.36
             21.51,52.17 23.20,53.05 27.00,52.36
             29.93,51.89 34.16,50.13 37.00,49.00
             46.33,45.28 51.79,43.30 57.00,34.00
             64.01,35.73 65.91,37.29 73.00,34.00
             77.29,42.00 87.67,49.46 97.00,49.00
             100.72,53.86 105.76,52.18 110.99,52.69
             115.71,53.15 121.60,55.25 126.00,57.00
             125.53,55.67 125.63,55.12 124.44,54.03
             123.10,52.79 113.89,49.54 112.00,49.50
             112.00,49.50 106.00,49.50 106.00,49.50
             101.68,49.51 84.41,42.82 81.70,39.61
             71.28,27.29 95.71,22.90 86.24,9.14
             85.04,7.40 84.64,7.14 83.00,6.00 Z
           M 85.00,11.00
           C 85.00,11.00 85.00,21.00 85.00,21.00
             83.65,17.59 83.65,14.41 85.00,11.00 Z
           M 45.00,12.00
           C 45.00,12.00 45.00,13.00 45.00,13.00
             45.00,13.00 44.00,12.00 44.00,12.00
             44.00,12.00 45.00,12.00 45.00,12.00 Z
           M 46.00,14.00
           C 46.00,14.00 46.00,18.00 46.00,18.00
             46.00,18.00 46.00,14.00 46.00,14.00 Z
           M 48.00,21.00
           C 48.00,21.00 48.00,22.00 48.00,22.00
             48.00,22.00 47.00,21.00 47.00,21.00
             47.00,21.00 48.00,21.00 48.00,21.00 Z
           M 84.00,21.00
           C 84.00,21.00 84.00,22.00 84.00,22.00
             84.00,22.00 83.00,21.00 83.00,21.00
             83.00,21.00 84.00,21.00 84.00,21.00 Z
           M 54.00,31.00
           C 54.00,31.00 56.00,33.00 56.00,33.00
             56.00,33.00 54.00,37.00 54.00,37.00
             54.00,37.00 54.00,31.00 54.00,31.00 Z
           M 57.00,32.00
           C 57.00,32.00 57.00,33.00 57.00,33.00
             57.00,33.00 56.00,32.00 56.00,32.00
             56.00,32.00 57.00,32.00 57.00,32.00 Z
           M 78.00,32.00
           C 78.00,32.00 77.00,36.00 77.00,36.00
             77.00,36.00 76.00,32.00 76.00,32.00
             76.00,32.00 78.00,32.00 78.00,32.00 Z
           M 65.00,59.00
           C 65.00,59.00 64.00,73.00 64.00,73.00
             64.00,73.00 64.00,97.00 64.00,97.00
             64.00,97.00 65.00,109.00 65.00,109.00
             67.26,105.93 66.98,104.72 67.00,101.00
             67.00,101.00 67.00,68.00 67.00,68.00
             66.99,64.03 67.44,62.31 65.00,59.00 Z
           M 51.00,64.00
           C 46.83,72.84 44.88,81.19 34.00,83.00
             44.86,90.86 50.94,71.05 53.00,64.00
             53.00,64.00 51.00,64.00 51.00,64.00 Z
           M 78.00,64.00
           C 78.33,67.60 77.95,69.65 81.00,72.00
             81.02,80.46 87.63,86.19 96.00,84.00
             96.00,84.00 86.39,77.95 86.39,77.95
             86.39,77.95 78.00,64.00 78.00,64.00 Z
           M 19.00,69.00
           C 19.00,69.00 20.56,81.00 20.56,81.00
             20.56,81.00 24.54,89.42 24.54,89.42
             24.54,89.42 14.63,104.00 14.63,104.00
             14.63,104.00 14.63,115.00 14.63,115.00
             14.63,115.00 13.00,124.00 13.00,124.00
             9.56,125.95 8.57,127.41 7.00,131.00
             12.16,127.31 17.17,122.71 17.58,116.00
             18.27,111.04 15.83,108.89 17.58,105.54
             19.45,101.02 24.62,98.02 27.00,90.00
             33.90,97.53 30.68,97.04 31.04,106.00
             31.32,113.05 33.83,116.04 33.88,118.83
             33.91,120.83 32.66,122.46 32.05,125.04
             31.44,128.00 31.82,131.01 32.05,134.00
             34.75,130.29 33.56,128.68 35.31,125.00
             38.10,119.12 41.96,118.63 41.00,111.00
             41.00,111.00 36.00,118.00 36.00,118.00
             35.10,111.33 31.56,103.02 36.00,97.00
             36.00,97.00 37.00,99.00 37.00,99.00
             37.00,99.00 39.00,107.00 39.00,107.00
             41.49,99.49 34.79,92.85 30.00,88.00
             27.39,85.36 25.25,82.82 22.00,81.00
             22.00,81.00 21.00,69.00 21.00,69.00
             21.00,69.00 19.00,69.00 19.00,69.00 Z
           M 109.00,69.00
           C 108.75,74.40 108.01,78.59 104.61,83.00
             100.94,87.76 95.15,90.92 94.00,97.00
             90.63,99.58 90.36,102.98 90.00,107.00
             93.13,104.60 94.00,100.72 95.00,97.00
             97.40,105.45 95.14,109.95 94.00,118.00
             94.00,118.00 91.00,117.00 91.00,117.00
             91.00,117.00 90.00,115.00 90.00,115.00
             90.00,115.00 90.00,111.00 90.00,111.00
             87.61,117.46 91.78,118.95 94.43,124.01
             96.02,127.05 96.18,130.69 97.00,134.00
             100.69,127.64 97.58,123.09 95.00,117.00
             101.61,111.94 97.75,100.55 98.88,96.00
             99.52,93.43 101.29,91.87 103.00,90.00
             105.38,98.06 110.44,100.17 112.40,105.72
             113.80,108.88 111.86,111.87 112.40,116.00
             112.79,122.34 118.53,128.34 124.00,131.00
             124.00,131.00 115.62,117.00 115.62,117.00
             115.62,117.00 115.62,104.01 115.62,104.01
             115.62,104.01 106.01,90.00 106.01,90.00
             106.01,90.00 109.21,82.09 109.21,82.09
             109.21,82.09 111.00,69.00 111.00,69.00
             111.00,69.00 109.00,69.00 109.00,69.00 Z
           M 55.00,98.00
           C 53.89,101.60 49.94,103.80 47.00,106.00
             52.83,107.73 55.56,102.84 57.00,98.00
             57.00,98.00 55.00,98.00 55.00,98.00 Z
           M 73.00,98.00
           C 74.91,104.43 76.90,105.66 83.00,108.00
             80.90,104.15 76.83,100.14 73.00,98.00 Z
           M 50.00,113.00
           C 50.00,113.00 57.00,122.00 57.00,122.00
             58.24,118.46 57.77,116.85 54.00,116.00
             54.00,116.00 50.00,113.00 50.00,113.00 Z
           M 79.00,113.00
           C 74.01,115.73 72.69,116.15 72.00,122.00
             74.71,119.66 78.67,116.72 79.00,113.00 Z
           M 65.00,121.00
           C 63.88,125.59 62.54,131.02 67.00,134.00
             67.00,129.32 67.86,124.88 65.00,121.00 Z" />
</svg>
