<?xml version="1.0" encoding="UTF-8" standalone="no"?>
<!DOCTYPE svg PUBLIC "-//W3C//DTD SVG 20010904//EN"
              "http://www.w3.org/TR/2001/REC-SVG-20010904/DTD/svg10.dtd">

<svg xmlns="http://www.w3.org/2000/svg"
     width="11.0914mm" height="11.8534mm"
     viewBox="0 0 131 140">
  <path id="Selection"
        fill="none" stroke="black" stroke-width="1"
        d="M 73.00,45.00
           C 73.00,45.00 68.00,61.00 68.00,61.00
             71.19,58.56 71.41,55.80 72.00,52.00
             75.55,57.67 76.68,59.44 83.00,62.00
             83.00,62.00 77.00,55.00 77.00,55.00
             87.51,58.68 86.84,60.47 93.00,63.25
             99.06,65.99 106.27,65.11 113.66,74.01
             119.24,80.74 120.70,92.48 120.63,101.00
             120.63,101.00 122.97,124.00 122.97,124.00
             127.53,117.01 123.36,109.36 122.97,102.00
             122.15,87.79 122.66,72.51 108.00,64.82
             102.72,62.06 100.05,62.39 96.00,60.87
             96.00,60.87 85.00,55.12 85.00,55.12
             78.33,52.02 74.89,53.41 75.00,45.00
             75.00,45.00 73.00,45.00 73.00,45.00 Z
           M 45.00,46.00
           C 44.88,48.31 44.87,50.71 43.69,52.79
             38.67,61.62 19.98,61.39 12.21,70.04
             5.45,77.57 5.95,90.84 8.77,100.00
             8.77,100.00 12.79,110.00 12.79,110.00
             13.44,115.03 10.82,116.29 12.79,124.00
             13.84,121.91 15.08,114.41 15.33,112.00
             15.79,107.55 13.41,104.13 11.79,100.00
             9.88,93.75 8.64,83.14 11.79,77.00
             17.47,64.63 27.88,68.57 43.00,57.00
             43.00,57.00 42.00,62.00 42.00,62.00
             47.14,58.66 48.26,51.04 45.00,46.00 Z
           M 50.00,72.00
           C 41.83,64.49 41.69,68.27 29.00,66.00
             32.14,70.05 36.39,68.58 41.00,70.14
             44.72,71.40 46.67,73.84 49.00,74.09
             52.36,74.45 53.69,71.15 59.00,70.11
             59.00,70.11 92.00,66.00 92.00,66.00
             92.00,66.00 92.00,64.00 92.00,64.00
             92.00,64.00 71.00,65.91 71.00,65.91
             62.79,66.47 55.62,64.78 50.00,72.00 Z
           M 23.00,76.00
           C 19.83,83.45 18.63,93.26 21.56,101.00
             21.56,101.00 25.74,109.00 25.74,109.00
             26.67,111.88 25.19,115.81 28.00,125.00
             28.00,125.00 29.00,110.00 29.00,110.00
             35.56,111.60 43.22,111.48 47.00,105.00
             44.47,106.00 41.68,107.22 39.00,107.62
             37.18,107.98 34.79,108.05 33.00,107.62
             17.73,103.47 24.48,81.21 23.00,76.00 Z
           M 48.06,80.00
           C 44.49,88.27 44.02,92.80 48.06,101.00
             48.06,101.00 48.06,90.00 48.06,90.00
             48.06,90.00 50.00,80.00 50.00,80.00
             50.00,80.00 48.06,80.00 48.06,80.00 Z
           M 93.00,94.00
           C 91.88,97.81 90.96,99.09 87.98,101.82
             73.00,115.52 59.76,105.95 49.00,104.00
             56.02,111.14 70.62,114.30 80.00,110.73
             85.68,108.57 88.80,105.16 93.00,101.00
             90.18,116.82 97.23,108.47 93.00,124.00
             93.00,124.00 98.00,120.00 98.00,120.00
             98.00,120.00 100.00,125.00 100.00,125.00
             102.11,118.57 96.63,113.86 95.39,108.00
             94.07,101.75 98.10,99.56 93.00,94.00 Z
           M 47.00,108.00
           C 45.20,114.35 46.35,118.79 48.00,125.00
             48.00,125.00 49.00,108.00 49.00,108.00
             49.00,108.00 47.00,108.00 47.00,108.00 Z" />
</svg>
