<?xml version="1.0" encoding="UTF-8" standalone="no"?>
<!DOCTYPE svg PUBLIC "-//W3C//DTD SVG 20010904//EN"
              "http://www.w3.org/TR/2001/REC-SVG-20010904/DTD/svg10.dtd">

<svg xmlns="http://www.w3.org/2000/svg"
     width="2.86111in" height="3.5in"
     viewBox="0 0 206 252">
  <path id="Selection"
        fill="none" stroke="black" stroke-width="1"
        d="M 89.00,1.21
           C 78.12,3.21 67.67,7.14 58.28,13.03
             58.28,13.03 51.99,17.83 51.99,17.83
             45.60,22.34 40.61,21.80 31.18,32.04
             23.15,40.76 10.29,65.43 7.16,77.00
             7.16,77.00 3.83,102.00 3.83,102.00
             3.83,102.00 2.29,111.00 2.29,111.00
             2.29,111.00 1.01,129.00 1.01,129.00
             0.95,131.70 0.55,136.08 2.60,138.08
             3.70,139.16 5.88,139.68 7.41,141.42
             8.86,143.08 8.87,144.85 9.97,146.37
             13.09,150.69 13.38,146.30 16.14,157.00
             18.30,165.41 15.75,173.27 18.18,180.00
             19.60,183.92 23.40,191.98 26.21,194.87
             29.81,198.57 32.62,198.17 34.93,201.27
             37.58,204.85 38.40,212.67 45.32,221.00
             58.22,236.50 87.89,249.76 108.00,250.91
             127.71,252.03 149.91,237.31 161.07,222.00
             161.07,222.00 171.07,204.14 171.07,204.14
             173.50,200.64 176.21,200.90 179.39,197.52
             183.13,193.54 185.45,186.24 186.85,181.00
             188.75,173.84 190.16,164.40 189.99,157.00
             189.88,152.47 188.14,147.60 188.85,144.00
             190.52,135.58 195.68,138.14 198.40,135.40
             200.32,133.48 199.89,130.14 201.03,127.01
             202.94,121.73 206.44,121.49 205.91,112.00
             205.91,112.00 205.09,105.00 205.09,105.00
             205.09,105.00 202.64,73.00 202.64,73.00
             202.64,73.00 198.59,61.00 198.59,61.00
             196.60,53.86 197.66,54.52 193.74,47.00
             186.64,33.38 172.72,20.24 159.00,13.37
             159.00,13.37 147.00,8.95 147.00,8.95
             147.00,8.95 133.00,3.76 133.00,3.76
             128.96,2.72 110.56,1.01 106.00,1.21
             106.00,1.21 89.00,1.21 89.00,1.21 Z" />
</svg>
