<?xml version="1.0" encoding="UTF-8" standalone="no"?>
<!DOCTYPE svg PUBLIC "-//W3C//DTD SVG 20010904//EN"
              "http://www.w3.org/TR/2001/REC-SVG-20010904/DTD/svg10.dtd">

<svg xmlns="http://www.w3.org/2000/svg"
     width="11.0067mm" height="11.8534mm"
     viewBox="0 0 130 140">
  <path id="Selection"
        fill="none" stroke="black" stroke-width="1"
        d="M 41.90,3.00
           C 41.90,7.69 40.53,12.37 41.90,16.96
             43.41,22.73 48.44,30.94 48.62,35.07
             48.79,39.15 47.39,41.53 47.31,44.04
             47.21,47.48 48.87,49.01 48.63,51.42
             48.41,53.65 44.66,58.56 45.10,71.91
             45.47,83.18 48.19,82.93 50.00,90.04
             51.88,90.23 54.73,90.85 56.47,90.04
             60.81,88.19 63.48,78.38 64.00,74.00
             64.00,74.00 56.00,89.00 56.00,89.00
             47.04,81.82 46.81,71.45 48.78,61.00
             49.64,56.49 50.44,51.24 56.09,50.36
             58.92,49.91 62.36,51.96 65.00,53.00
             60.51,47.95 57.17,46.59 51.00,50.00
             50.45,47.78 49.89,45.61 49.96,43.30
             50.24,36.79 53.54,38.12 49.96,28.43
             48.80,25.39 48.76,24.78 46.00,23.00
             46.00,23.00 44.02,14.28 44.02,14.28
             44.02,14.28 44.02,3.00 44.02,3.00
             44.02,3.00 41.90,3.00 41.90,3.00 Z
           M 77.00,3.00
           C 77.00,3.00 75.90,19.35 75.90,19.35
             75.90,19.35 71.22,30.00 71.22,30.00
             71.22,30.00 69.00,43.00 69.00,43.00
             69.00,43.00 68.00,38.00 68.00,38.00
             68.00,38.00 66.00,38.00 66.00,38.00
             66.28,50.27 72.06,50.64 73.70,63.00
             74.89,71.99 67.50,90.52 65.49,101.09
             64.33,107.17 65.20,112.28 62.00,118.00
             62.77,120.56 62.86,120.05 61.00,122.00
             61.00,122.00 62.00,120.00 62.00,120.00
             62.00,120.00 61.00,119.00 61.00,119.00
             56.70,127.16 70.33,123.81 64.00,118.00
             66.93,114.06 67.59,103.73 68.61,98.29
             70.52,88.07 77.40,75.27 76.90,65.00
             76.51,57.08 72.85,53.38 72.17,49.00
             71.49,46.62 72.05,40.61 72.17,38.04
             73.79,27.09 85.13,13.59 77.00,3.00 Z
           M 57.04,8.00
           C 57.04,8.00 55.02,16.17 55.02,16.17
             55.02,16.17 56.07,38.00 56.07,38.00
             56.07,38.00 54.00,47.00 54.00,47.00
             54.00,47.00 59.00,43.00 59.00,43.00
             59.00,43.00 63.00,48.00 63.00,48.00
             63.00,48.00 57.90,32.42 57.90,32.42
             57.90,32.42 57.04,20.00 57.04,20.00
             57.04,20.00 57.04,8.00 57.04,8.00 Z
           M 67.00,36.00
           C 67.00,36.00 67.00,37.00 67.00,37.00
             67.00,37.00 68.00,36.00 68.00,36.00
             68.00,36.00 67.00,36.00 67.00,36.00 Z
           M 50.00,91.00
           C 51.52,99.43 52.99,109.41 51.87,117.96
             50.71,126.83 42.71,126.96 50.00,137.00
             61.74,135.91 60.55,137.50 67.00,137.72
             67.00,137.72 76.00,136.77 76.00,136.77
             83.21,136.18 87.91,138.33 89.00,129.00
             75.86,129.15 78.71,125.34 67.00,122.00
             68.79,124.89 78.63,130.51 82.00,131.09
             83.67,131.50 84.43,131.21 86.00,131.09
             86.00,131.09 82.38,133.74 82.38,133.74
             82.38,133.74 67.00,134.73 67.00,134.73
             67.00,134.73 59.42,133.22 59.42,133.22
             59.42,133.22 49.00,133.22 49.00,133.22
             50.97,125.78 53.15,124.85 54.19,120.96
             55.70,116.62 54.78,106.78 54.19,102.17
             53.31,97.79 53.94,93.73 50.00,91.00 Z" />
</svg>
