<?xml version="1.0" encoding="UTF-8" standalone="no"?>
<!DOCTYPE svg PUBLIC "-//W3C//DTD SVG 20010904//EN"
              "http://www.w3.org/TR/2001/REC-SVG-20010904/DTD/svg10.dtd">

<svg xmlns="http://www.w3.org/2000/svg"
     width="2.86111in" height="3.5in"
     viewBox="0 0 206 252">
  <path id="Selection #1"
        fill="none" stroke="black" stroke-width="1"
        d="M 88.00,0.94
           C 88.00,0.94 75.00,4.59 75.00,4.59
             75.00,4.59 58.47,12.66 58.47,12.66
             58.47,12.66 50.99,18.45 50.99,18.45
             44.95,22.34 43.09,19.93 40.00,26.00
             33.66,27.04 23.22,39.60 23.00,46.00
             20.26,47.75 20.36,47.79 20.00,51.00
             20.00,51.00 14.00,59.00 14.00,59.00
             14.01,66.79 7.75,66.83 9.00,76.00
             9.00,76.00 7.00,76.00 7.00,76.00
             7.00,76.00 3.71,105.00 3.71,105.00
             3.71,105.00 2.00,118.00 2.00,118.00
             2.00,118.00 0.97,135.00 0.97,135.00
             0.97,135.00 3.00,140.00 3.00,140.00
             8.93,140.32 7.39,142.84 10.52,146.53
             12.06,148.35 13.93,148.99 15.16,151.34
             18.12,156.98 16.44,167.87 17.18,174.00
             17.79,178.96 20.06,181.02 20.00,186.00
             20.00,186.00 22.00,186.00 22.00,186.00
             23.01,194.44 28.93,197.17 36.00,200.00
             36.00,200.00 42.00,218.00 42.00,218.00
             42.00,218.00 54.81,230.19 54.81,230.19
             54.81,230.19 67.00,239.00 67.00,239.00
             67.00,239.00 69.00,238.00 69.00,238.00
             71.86,241.61 79.49,244.07 84.00,244.00
             87.30,247.89 102.96,250.72 108.00,250.00
             108.00,250.00 108.00,252.00 108.00,252.00
             112.93,250.69 125.46,249.91 128.00,246.00
             135.34,245.99 143.58,239.23 148.81,234.49
             151.93,231.65 154.09,231.38 155.00,227.00
             155.00,227.00 164.00,219.00 164.00,219.00
             163.94,216.66 163.62,215.79 166.00,215.00
             166.00,215.00 170.00,208.00 170.00,208.00
             170.37,199.78 174.56,201.37 178.62,198.11
             180.76,196.40 182.34,193.48 183.41,191.00
             187.68,181.12 189.87,170.79 189.99,160.00
             189.99,160.00 189.15,147.00 189.15,147.00
             187.81,144.42 188.45,144.51 189.15,141.87
             191.28,135.69 193.61,135.47 200.00,136.00
             200.00,133.60 199.80,129.16 200.60,127.04
             201.94,123.48 204.61,123.06 205.11,118.96
             205.11,118.96 203.04,80.00 203.04,80.00
             202.52,68.19 202.93,74.36 199.62,64.09
             198.79,61.52 199.26,59.51 197.00,58.00
             197.00,58.00 196.00,55.00 196.00,55.00
             196.18,50.48 193.68,46.95 191.38,43.09
             191.38,43.09 187.14,37.49 187.14,37.49
             181.12,29.32 180.55,28.06 172.00,21.63
             168.26,18.82 165.77,16.47 161.00,16.00
             161.00,16.00 160.00,13.00 160.00,13.00
             160.00,13.00 149.00,9.00 149.00,9.00
             149.00,9.00 141.00,8.00 141.00,8.00
             141.00,8.00 141.00,6.00 141.00,6.00
             141.00,6.00 139.00,5.00 139.00,5.00
             139.00,5.00 130.42,3.36 130.42,3.36
             130.42,3.36 122.00,2.71 122.00,2.71
             122.00,2.71 105.00,0.94 105.00,0.94
             105.00,0.94 88.00,0.94 88.00,0.94 Z
           M 169.00,20.00
           C 169.00,20.00 169.00,21.00 169.00,21.00
             169.00,21.00 168.00,20.00 168.00,20.00
             168.00,20.00 169.00,20.00 169.00,20.00 Z
           M 10.00,72.00
           C 10.00,72.00 10.00,73.00 10.00,73.00
             10.00,73.00 9.00,72.00 9.00,72.00
             9.00,72.00 10.00,72.00 10.00,72.00 Z
           M 112.00,124.00
           C 116.47,134.12 116.31,134.96 128.00,135.00
             117.71,159.36 159.12,170.46 168.52,148.00
             170.28,143.81 170.42,141.42 170.00,137.00
             172.64,137.12 178.30,137.37 180.02,139.72
             181.10,141.31 180.36,144.20 180.02,146.00
             180.02,146.00 177.20,163.00 177.20,163.00
             172.34,187.45 170.11,210.84 151.83,229.83
             141.78,240.27 121.64,249.40 107.00,248.87
             101.75,248.68 92.17,244.87 87.00,243.08
             66.57,236.00 51.21,227.92 40.63,208.00
             33.50,194.58 32.32,178.89 30.58,164.00
             30.38,160.22 29.56,147.33 30.58,144.15
             31.25,140.88 33.54,141.46 35.90,140.00
             38.57,138.34 39.04,136.78 40.00,134.00
             40.00,134.00 46.00,136.00 46.00,136.00
             36.14,156.48 67.23,168.37 80.91,155.79
             84.28,152.68 91.70,141.05 87.40,136.74
             86.14,135.48 84.61,135.35 83.00,135.00
             83.00,135.00 100.00,134.00 100.00,134.00
             100.00,134.00 108.41,132.40 108.41,132.40
             108.41,132.40 112.00,124.00 112.00,124.00 Z
           M 65.00,128.00
           C 65.00,128.00 76.00,134.00 76.00,134.00
             76.00,134.00 64.00,134.00 64.00,134.00
             64.00,134.00 65.00,128.00 65.00,128.00 Z
           M 161.00,128.00
           C 163.30,131.81 163.66,132.16 168.00,131.00
             168.00,131.00 169.00,136.00 169.00,136.00
             169.00,136.00 157.00,134.00 157.00,134.00
             157.00,134.00 161.00,128.00 161.00,128.00 Z
           M 141.00,133.00
           C 141.00,133.00 132.00,135.00 132.00,135.00
             132.00,135.00 133.00,132.00 133.00,132.00
             133.00,132.00 141.00,133.00 141.00,133.00 Z
           M 147.00,136.32
           C 150.30,136.25 163.21,136.96 165.40,138.93
             167.52,140.85 166.91,144.57 166.21,147.00
             163.84,155.22 156.79,157.21 149.00,157.63
             141.77,158.01 132.93,155.19 130.00,148.00
             129.12,145.83 128.47,141.72 130.00,139.70
             132.38,136.53 142.90,136.85 147.00,136.32 Z
           M 170.00,136.00
           C 170.00,136.00 170.00,137.00 170.00,137.00
             170.00,137.00 169.00,136.00 169.00,136.00
             169.00,136.00 170.00,136.00 170.00,136.00 Z
           M 87.00,139.00
           C 84.88,145.48 83.27,152.14 76.98,155.99
             70.49,159.97 53.85,158.76 49.23,151.82
             46.67,147.97 47.00,143.40 47.00,139.00
             57.99,138.11 77.10,134.41 87.00,139.00 Z
           M 9.00,139.00
           C 9.00,139.00 9.00,140.00 9.00,140.00
             9.00,140.00 8.00,139.00 8.00,139.00
             8.00,139.00 9.00,139.00 9.00,139.00 Z
           M 110.00,141.00
           C 107.65,148.68 107.99,154.16 108.00,162.00
             108.01,166.30 107.33,170.15 111.00,173.00
             111.00,166.55 111.88,145.73 110.00,141.00 Z
           M 149.00,147.00
           C 149.00,147.00 149.00,141.00 149.00,141.00
             143.04,142.37 142.86,145.92 149.00,147.00 Z
           M 187.00,150.00
           C 187.00,150.00 187.00,160.00 187.00,160.00
             187.00,160.00 181.00,160.00 181.00,160.00
             181.00,160.00 185.00,150.00 185.00,150.00
             185.00,150.00 187.00,150.00 187.00,150.00 Z
           M 24.00,151.00
           C 24.00,151.00 26.00,160.00 26.00,160.00
             24.66,160.76 23.96,160.80 23.02,162.29
             19.81,167.39 23.93,180.80 26.00,186.00
             26.00,186.00 30.00,183.00 30.00,183.00
             30.00,183.00 33.00,197.00 33.00,197.00
             26.47,194.72 25.65,190.96 23.15,185.00
             22.00,182.23 19.82,175.84 19.41,173.00
             18.78,168.61 20.40,155.28 22.00,151.00
             22.00,151.00 24.00,151.00 24.00,151.00 Z
           M 181.00,171.00
           C 181.00,171.00 181.00,172.00 181.00,172.00
             181.00,172.00 180.00,171.00 180.00,171.00
             180.00,171.00 181.00,171.00 181.00,171.00 Z
           M 180.00,172.00
           C 180.00,172.00 180.00,173.00 180.00,173.00
             180.00,173.00 179.00,172.00 179.00,172.00
             179.00,172.00 180.00,172.00 180.00,172.00 Z
           M 186.00,172.00
           C 185.31,180.40 181.61,195.73 173.00,199.00
             173.00,199.00 177.00,182.00 177.00,182.00
             177.00,182.00 181.00,183.00 181.00,183.00
             181.00,183.00 186.00,172.00 186.00,172.00 Z
           M 109.00,179.00
           C 109.00,179.00 108.00,184.00 108.00,184.00
             111.27,182.63 110.94,181.68 109.00,179.00 Z
           M 98.00,212.00
           C 98.00,212.00 116.00,210.00 116.00,210.00
             111.71,207.51 100.21,206.67 98.00,212.00 Z
           M 65.31,142.72
           C 65.31,142.72 64.18,142.91 65.45,142.27
             66.73,141.64 68.91,142.81 68.91,142.81
             68.91,142.81 69.75,143.03 69.75,143.03
             69.75,143.03 69.91,144.59 69.91,144.59
             69.91,144.59 69.25,145.19 69.25,145.19
             69.25,145.19 68.62,145.94 68.62,145.94
             68.62,145.94 67.94,146.50 67.94,146.50
             67.94,146.50 66.97,146.81 66.91,146.81
             66.84,146.81 65.50,146.28 65.50,146.28
             65.50,146.28 64.94,145.59 64.94,145.59
             64.94,145.59 64.50,144.50 64.50,144.50
             64.50,144.50 64.88,142.62 64.88,142.62M 38.62,134.88M 2.64,116.64
           C 2.64,116.64 4.27,104.64 4.36,103.55M 6.09,91.91" />
</svg>
