<?xml version="1.0" encoding="UTF-8" standalone="no"?>
<!DOCTYPE svg PUBLIC "-//W3C//DTD SVG 20010904//EN"
              "http://www.w3.org/TR/2001/REC-SVG-20010904/DTD/svg10.dtd">

<svg xmlns="http://www.w3.org/2000/svg"
     width="11.0067mm" height="11.8534mm"
     viewBox="0 0 130 140">
  <path id="Selection"
        fill="none" stroke="black" stroke-width="1"
        d="M 94.00,6.00
           C 94.69,12.52 98.29,17.07 95.42,23.96
             93.57,28.39 86.23,30.61 82.00,32.76
             82.00,32.76 70.42,39.39 70.42,39.39
             68.24,40.20 66.56,38.96 63.00,39.39
             63.00,39.39 56.00,40.68 56.00,40.68
             47.50,42.09 40.16,41.57 33.32,48.33
             28.66,52.94 24.73,61.44 24.19,68.00
             23.75,73.25 25.86,77.19 25.88,79.72
             25.90,83.13 21.62,87.33 21.10,95.00
             20.69,101.00 22.40,102.87 23.48,108.00
             24.21,111.44 24.00,116.38 24.00,120.00
             24.00,120.00 26.00,120.00 26.00,120.00
             26.00,120.00 26.51,108.00 26.51,108.00
             26.51,108.00 24.19,98.00 24.19,98.00
             23.63,92.91 25.22,88.64 27.00,84.00
             27.00,84.00 29.00,84.00 29.00,84.00
             29.00,84.00 30.00,87.00 30.00,87.00
             30.53,83.36 28.67,80.48 27.93,77.00
             26.51,72.27 26.51,67.65 27.93,63.00
             33.34,47.71 41.82,45.68 56.00,43.82
             56.00,43.82 64.00,42.37 64.00,42.37
             64.00,42.37 75.00,44.57 75.00,44.57
             75.00,44.57 98.00,49.15 98.00,49.15
             104.27,50.87 107.20,52.43 114.00,53.00
             114.00,53.00 114.00,51.00 114.00,51.00
             103.82,49.25 108.70,36.65 99.00,31.00
             99.00,31.00 106.00,49.00 106.00,49.00
             106.00,49.00 92.00,44.88 92.00,44.88
             92.00,44.88 74.00,41.00 74.00,41.00
             74.00,41.00 92.00,32.00 92.00,32.00
             92.00,32.00 90.00,36.00 90.00,36.00
             98.66,31.86 98.99,26.53 99.00,18.00
             104.48,21.70 109.15,27.46 116.00,26.00
             116.00,26.00 100.32,13.91 100.32,13.91
             100.32,13.91 94.00,6.00 94.00,6.00 Z
           M 93.00,31.00
           C 93.00,31.00 93.00,32.00 93.00,32.00
             93.00,32.00 92.00,31.00 92.00,31.00
             92.00,31.00 93.00,31.00 93.00,31.00 Z
           M 107.00,49.00
           C 107.00,49.00 107.00,50.00 107.00,50.00
             107.00,50.00 106.00,49.00 106.00,49.00
             106.00,49.00 107.00,49.00 107.00,49.00 Z
           M 62.00,81.00
           C 62.00,81.00 68.83,86.22 68.83,86.22
             72.92,90.02 74.47,93.58 80.00,96.59
             86.51,100.13 95.85,100.16 103.00,99.28
             107.80,98.69 112.99,99.38 116.00,94.93
             104.77,95.52 95.33,99.08 84.00,94.93
             72.76,90.69 74.25,82.31 62.00,81.00 Z
           M 60.00,84.00
           C 60.00,87.69 60.29,94.73 59.37,98.00
             57.53,104.47 47.59,118.14 56.00,124.00
             53.45,113.48 57.19,112.93 60.00,104.00
             60.00,104.00 74.61,115.49 74.61,115.49
             74.61,115.49 82.00,124.00 82.00,124.00
             82.00,124.00 76.86,110.00 76.86,110.00
             76.86,110.00 72.00,94.00 72.00,94.00
             69.79,99.59 72.40,106.46 74.00,112.00
             70.66,109.33 63.91,105.01 62.69,101.00
             61.75,97.94 64.12,90.36 60.00,84.00 Z
           M 104.00,119.00
           C 104.00,119.00 109.39,110.11 109.39,110.11
             109.39,110.11 116.00,104.00 116.00,104.00
             106.97,105.51 104.42,110.36 104.00,119.00 Z
           M 81.00,106.00
           C 84.03,111.03 87.63,110.95 93.00,111.00
             89.31,107.48 85.93,106.76 81.00,106.00 Z
           M 81.00,113.00
           C 83.90,117.50 87.93,119.70 93.00,117.00
             93.00,117.00 81.00,113.00 81.00,113.00 Z" />
</svg>
